
<svg width="103px" height="58px" viewBox="0 0 103 58" version="1.1" xmlns="http://www.w3.org/2000/svg" xmlns:xlink="http://www.w3.org/1999/xlink">
    <!-- Generator: Sketch 43.2 (39069) - http://www.bohemiancoding.com/sketch -->
    <desc>Created with Sketch.</desc>
    <defs></defs>
    <g id="Page-1" stroke="none" stroke-width="1" fill="none" fill-rule="evenodd">
        <g id="Desktop" transform="translate(-275.000000, -800.000000)" fill="#282828">
            <g id="COMMENTARIES-+-Shape" transform="translate(274.000000, 800.000000)">
                <text id="COMMENTARIES" font-family=".AppleSystemUIFont" font-size="13" font-weight="normal">
                    <tspan x="0.734863281" y="57">COMMENTARIES</tspan>
                </text>
                <path d="M57,0 L43,0 C42.4,0 42,0.4 42,1 L42,12 C42,12.6 42.4,13 43,13 L46.6,13 L49.3,15.7 C49.5,15.9 49.7,16 50,16 C50.3,16 50.5,15.9 50.7,15.7 L53.4,13 L57,13 C57.6,13 58,12.6 58,12 L58,1 C58,0.4 57.6,0 57,0 L57,0 Z M56,11 L53,11 C52.7,11 52.5,11.1 52.3,11.3 L50,13.6 L47.7,11.3 C47.5,11.1 47.3,11 47,11 L44,11 L44,2 L56,2 L56,11 L56,11 Z" id="Shape"></path>
            </g>
        </g>
    </g>
</svg>