
<svg width="53px" height="51px" viewBox="0 0 53 51" version="1.1" xmlns="http://www.w3.org/2000/svg" xmlns:xlink="http://www.w3.org/1999/xlink">
    <!-- Generator: Sketch 43.2 (39069) - http://www.bohemiancoding.com/sketch -->
    <desc>Created with Sketch.</desc>
    <defs></defs>
    <g id="Page-1" stroke="none" stroke-width="1" fill="none" fill-rule="evenodd">
        <g id="Desktop" transform="translate(-104.000000, -47.000000)" fill="#282828">
            <g id="Glo" transform="translate(104.000000, 47.000000)">
                <g id="Imported-Layers-Copy" transform="translate(0.014582, 0.175691)">
                    <path d="M50.6094518,6.68105426 L31.5039651,0.792743046 C28.0731709,-0.264247682 24.4054637,-0.264247682 20.9746696,0.792743046 L1.86918283,6.68105426 C-0.440878849,7.39272312 -0.668899785,10.5831276 1.51635378,11.6184561 L18.5836256,19.7045307 C23.4308171,22.00073 29.0478175,22.00073 33.8950091,19.7045307 L50.9622809,11.6184561 C53.1475345,10.5831276 52.9195135,7.39272312 50.6094518,6.68105426 L50.6094518,6.68105426 Z M38.6948816,12.4747524 L36.4991479,13.5148593 C35.7979359,13.8474387 34.4888798,13.8203608 33.6409468,13.4884186 L24.4384918,9.88547552 L20.7209249,11.3467222 C19.948893,11.6503124 18.7319344,11.6627363 18.0218302,11.3588276 L15.7965619,10.4069625 C15.1236143,10.1189819 15.2233337,9.651332 15.9921899,9.37290828 L19.6992767,8.02984834 L16.4866587,6.7718446 C15.8626181,6.52750708 15.8943759,6.12994095 16.600034,5.89293037 L18.8186332,5.14781244 C19.4912632,4.92163299 20.572616,4.93055274 21.1991972,5.15673219 L24.4200723,6.3194857 L27.6288795,5.15673219 C28.25292,4.93055274 29.3339552,4.92163299 30.0091259,5.14781244 L32.235347,5.89293037 C32.9435457,6.12994095 32.979432,6.52750708 32.357932,6.7718446 L29.1583347,8.02984834 L34.2446624,9.86572464 L34.2837245,9.87974139 L38.3147408,11.3346168 C39.1553695,11.638207 39.3579842,12.1606497 38.6948816,12.4747524 L38.6948816,12.4747524 Z" id="Fill-1"></path>
                    <path d="M52.2989382,14.068582 C52.2852823,14.0749533 52.2728968,14.0829173 52.2592409,14.0892886 L35.191334,22.1753632 C32.4099867,23.4929382 29.3139197,24.189316 26.2378601,24.189316 C23.1614829,24.189316 20.0654159,23.4929382 17.2837511,22.1753632 L0.216479296,14.0892886 C0.202823446,14.0829173 0.19012033,14.0749533 0.176782057,14.068582 C-0.278624659,15.2724301 0.138355131,16.7785941 1.51473777,17.4306918 L18.7220614,25.5830274 C23.4803312,27.8371764 28.9950715,27.8371764 33.7533412,25.5830274 L35.3574272,24.822937 L35.3574272,28.898627 C35.3574272,29.1697238 35.7115266,29.2710267 35.8544367,29.040706 L37.4347043,26.4890195 L38.215946,27.55493 C38.3696537,27.7645442 38.701205,27.6555957 38.701205,27.3953301 L38.701205,23.2387252 L50.9606649,17.4306918 C52.3370475,16.7785941 52.7540273,15.2727487 52.2989382,14.068582" id="Fill-2"></path>
                </g>
                <text id="gloBIBLE" font-family=".AppleSystemUIFont" font-size="11.9769228" font-weight="normal" letter-spacing="0.278198719">
                    <tspan x="0.603666054" y="47.4772938">gloBIBLE</tspan>
                </text>
            </g>
        </g>
    </g>
</svg>