
<svg width="48px" height="59px" viewBox="0 0 48 59" version="1.1" xmlns="http://www.w3.org/2000/svg" xmlns:xlink="http://www.w3.org/1999/xlink">
    <!-- Generator: Sketch 43.2 (39069) - http://www.bohemiancoding.com/sketch -->
    <desc>Created with Sketch.</desc>
    <defs></defs>
    <g id="Page-1" stroke="none" stroke-width="1" fill="none" fill-rule="evenodd">
        <g id="Desktop" transform="translate(-440.000000, -801.000000)" fill="#282828">
            <g id="Group" transform="translate(439.000000, 801.000000)">
                <text id="IMAGES" font-family=".AppleSystemUIFont" font-size="13" font-weight="normal">
                    <tspan x="0.561523438" y="57.474322">IMAGES</tspan>
                </text>
                <path d="M32,16.474322 L18,16.474322 C17.4,16.474322 17,16.074322 17,15.474322 L17,1.47432198 C17,0.874321976 17.4,0.474321976 18,0.474321976 L32,0.474321976 C32.6,0.474321976 33,0.874321976 33,1.47432198 L33,15.474322 C33,16.074322 32.6,16.474322 32,16.474322 L32,16.474322 Z M19,14.474322 L31,14.474322 L31,2.47432198 L19,2.47432198 L19,14.474322 L19,14.474322 Z" id="Shape"></path>
                <path d="M23,4.47432198 C23.6,4.47432198 24,4.87432198 24,5.47432198 C24,6.07432198 23.6,6.47432198 23,6.47432198 C22.4,6.47432198 22,6.07432198 22,5.47432198 C22,4.87432198 22.4,4.47432198 23,4.47432198 L23,4.47432198 Z" id="Shape"></path>
                <polygon id="Shape" points="20 12.474322 22 8.47432198 24 10.474322 27 6.47432198 30 12.474322"></polygon>
            </g>
        </g>
    </g>
</svg>