
<svg width="202px" height="40px" viewBox="0 0 202 40" version="1.1" xmlns="http://www.w3.org/2000/svg" xmlns:xlink="http://www.w3.org/1999/xlink">
    <!-- Generator: Sketch 43.2 (39069) - http://www.bohemiancoding.com/sketch -->
    <desc>Created with Sketch.</desc>
    <defs>
        <path d="M27.623362,17.8494776 L30.2330477,14.0685131 C30.7264475,13.356171 31.3633137,13 32.1442702,13 C32.7812924,13 33.3323906,13.2259596 33.7985006,13.6780349 C34.2641428,14.1301101 34.4969639,14.6712281 34.4969639,15.3013888 C34.4969639,15.7671869 34.3739258,16.1782495 34.1272259,16.5344205 L31.7742203,19.9557832 L34.6511903,23.6032615 C34.9389029,23.966294 35.0826812,24.3910794 35.0826812,24.8773059 C35.0826812,25.5213454 34.8568775,26.074159 34.4046463,26.5365264 C33.9525711,26.9990498 33.4042798,27.2299995 32.7607081,27.2299995 C32.0550715,27.2299995 31.5175402,27.0007651 31.1474903,26.5416725 L27.623362,22.1442702 L27.623362,24.5691649 C27.623362,25.2610786 27.5035987,25.7986099 27.2637602,26.1822267 C26.8254079,26.8806899 26.1883857,27.2299995 25.3528496,27.2299995 C24.5924775,27.2299995 24.0031735,26.9731634 23.5855614,26.4594912 C23.1950832,25.9868317 23,25.3599457 23,24.5794571 L23,15.5891014 C23,14.8493136 23.1983579,14.2398931 23.5958536,13.7603721 C24.0136216,13.2535613 24.5888908,13 25.3218172,13 C26.0205923,13 26.602723,13.2535613 27.0685211,13.7603721 C27.3287879,14.0410673 27.4931506,14.3253492 27.561609,14.6130618 C27.6027777,14.7913033 27.623362,15.1233033 27.623362,15.6096857 L27.623362,17.8494776 L27.623362,17.8494776 Z" id="path-1"></path>
    </defs>
    <g id="Page-1" stroke="none" stroke-width="1" fill="none" fill-rule="evenodd">
        <g id="Desktop" transform="translate(-187.000000, -1490.000000)">
            <g id="Thank-you!-+-1700-backers-helped--+-KS-Button" transform="translate(143.000000, 1420.000000)">
                <g id="KS-Button" transform="translate(44.000000, 70.000000)">
                    <rect id="Rectangle-158" stroke="#282828" x="0.5" y="0.5" width="201" height="39" rx="4"></rect>
                    <text id="View-Our-Kickstarter" font-family=".AppleSystemUIFont" font-size="13" font-weight="normal" fill="#FFFFFF">
                        <tspan x="52" y="26">View Our Kickstarter</tspan>
                    </text>
                    <mask id="mask-2" fill="white">
                        <use xlink:href="#path-1"></use>
                    </mask>
                    <use id="Clip-3" fill="#FFFFFF" xlink:href="#path-1"></use>
                </g>
            </g>
        </g>
    </g>
</svg>