
<svg width="62px" height="58px" viewBox="0 0 62 58" version="1.1" xmlns="http://www.w3.org/2000/svg" xmlns:xlink="http://www.w3.org/1999/xlink">
    <!-- Generator: Sketch 43.2 (39069) - http://www.bohemiancoding.com/sketch -->
    <desc>Created with Sketch.</desc>
    <defs></defs>
    <g id="Page-1" stroke="none" stroke-width="1" fill="none" fill-rule="evenodd">
        <g id="Desktop" transform="translate(-150.000000, -800.000000)" fill="#282828">
            <g id="Group" transform="translate(149.000000, 800.000000)">
                <text id="SERMONS" font-family=".AppleSystemUIFont" font-size="13" font-weight="normal">
                    <tspan x="0.347412109" y="57">SERMONS</tspan>
                </text>
                <path d="M38,10 L38,1 C38,0.4 37.6,0 37,0 L25,0 C24.4,0 24,0.4 24,1 L24,10 L23,10 L23,12 L27,12 L25.2,14.4 C24.9,14.8 25,15.5 25.4,15.8 C25.6,15.9 25.8,16 26,16 C26.3,16 26.6,15.9 26.8,15.6 L29.5,12 L30,12 L30,14 L32,14 L32,12 L32.5,12 L35.2,15.6 C35.4,15.9 35.7,16 36,16 C36.2,16 36.4,15.9 36.6,15.8 C37,15.5 37.1,14.8 36.8,14.4 L35,12 L39,12 L39,10 L38,10 L38,10 Z M26,2 L36,2 L36,10 L26,10 L26,2 L26,2 Z" id="Shape"></path>
                <rect id="Rectangle-path" x="28" y="4" width="6" height="1"></rect>
                <rect id="Rectangle-path" x="28" y="7" width="6" height="1"></rect>
            </g>
        </g>
    </g>
</svg>