
<svg width="47px" height="59px" viewBox="0 0 47 59" version="1.1" xmlns="http://www.w3.org/2000/svg" xmlns:xlink="http://www.w3.org/1999/xlink">
    <!-- Generator: Sketch 43.2 (39069) - http://www.bohemiancoding.com/sketch -->
    <desc>Created with Sketch.</desc>
    <defs></defs>
    <g id="Page-1" stroke="none" stroke-width="1" fill="none" fill-rule="evenodd">
        <g id="Desktop" transform="translate(-828.000000, -801.000000)" fill="#282828">
            <g id="VIDEOS-+-Shape-+-Shape" transform="translate(827.000000, 801.000000)">
                <text id="VIDEOS" font-family=".AppleSystemUIFont" font-size="13" font-weight="normal">
                    <tspan x="0.864501953" y="57.474322">VIDEOS</tspan>
                </text>
                <path d="M31,0.474321976 L17,0.474321976 C16.4,0.474321976 16,0.874321976 16,1.47432198 L16,13.474322 C16,14.074322 16.4,14.474322 17,14.474322 L31,14.474322 C31.6,14.474322 32,14.074322 32,13.474322 L32,1.47432198 C32,0.874321976 31.6,0.474321976 31,0.474321976 L31,0.474321976 Z M30,12.474322 L18,12.474322 L18,2.47432198 L30,2.47432198 L30,12.474322 L30,12.474322 Z" id="Shape"></path>
                <polygon id="Shape" points="22 4.47432198 22 10.474322 26 7.47432198"></polygon>
            </g>
        </g>
    </g>
</svg>