
<svg width="102px" height="60px" viewBox="0 0 102 60" version="1.1" xmlns="http://www.w3.org/2000/svg" xmlns:xlink="http://www.w3.org/1999/xlink">
    <!-- Generator: Sketch 43.2 (39069) - http://www.bohemiancoding.com/sketch -->
    <desc>Created with Sketch.</desc>
    <defs></defs>
    <g id="Page-1" stroke="none" stroke-width="1" fill="none" fill-rule="evenodd">
        <g id="Desktop" transform="translate(-670.000000, -800.000000)" fill="#282828">
            <g id="VIRTUAL-TOURS-+-Shape-+-Shape" transform="translate(669.000000, 800.000000)">
                <text id="VIRTUAL-TOURS" font-family=".AppleSystemUIFont" font-size="13" font-weight="normal">
                    <tspan x="1.41088867" y="58.374322">VIRTUAL TOURS</tspan>
                </text>
                <path d="M48,1.37432198 C45.1,1.37432198 42,3.57432198 42,7.37432198 C42,11.074322 48,16.374322 48,16.374322 C48,16.374322 54,11.074322 54,7.37432198 C54,3.57432198 50.9,1.37432198 48,1.37432198 L48,1.37432198 Z M48,9.37432198 C46.9,9.37432198 46,8.47432198 46,7.37432198 C46,6.27432198 46.9,5.37432198 48,5.37432198 C49.1,5.37432198 50,6.27432198 50,7.37432198 C50,8.47432198 49.1,9.37432198 48,9.37432198 L48,9.37432198 Z" id="Shape"></path>
                <path d="M56,7.37432198 C56,8.37432198 55.7,9.47432198 55.2,10.574322 C56.5,9.07432198 58,6.97432198 58,5.27432198 C58,2.17432198 55.4,0.374321976 53.1,0.374321976 C52.8,0.374321976 52.4,0.374321976 52.1,0.474321976 C54.3,1.77432198 56,4.17432198 56,7.37432198 L56,7.37432198 Z" id="Shape"></path>
            </g>
        </g>
    </g>
</svg>